<svg xmlns="http://www.w3.org/2000/svg" xmlns:xlink="http://www.w3.org/1999/xlink" width="500" zoomAndPan="magnify" viewBox="0 0 375 374.999991" height="500" preserveAspectRatio="xMidYMid meet" version="1.0"><defs><g/><clipPath id="bbbe14f8ba"><path d="M 138 114.976562 L 260.988281 114.976562 L 260.988281 220.726562 L 138 220.726562 Z M 138 114.976562 " clip-rule="nonzero"/></clipPath><clipPath id="da30f4f457"><path d="M 114 114.976562 L 183 114.976562 L 183 220.726562 L 114 220.726562 Z M 114 114.976562 " clip-rule="nonzero"/></clipPath></defs><g clip-path="url(#bbbe14f8ba)"><path fill="#ff6700" d="M 189.296875 200.652344 L 173.359375 200.652344 L 199.90625 154.660156 L 226.460938 200.652344 L 210.519531 200.652344 L 210.519531 220.539062 L 260.867188 220.539062 L 199.90625 114.960938 L 138.953125 220.539062 L 189.296875 220.539062 Z M 189.296875 200.652344 " fill-opacity="1" fill-rule="nonzero"/></g><g clip-path="url(#da30f4f457)"><path fill="#ffffff" d="M 175.125 114.960938 L 114.164062 220.539062 L 129.3125 220.539062 L 182.691406 128.074219 Z M 175.125 114.960938 " fill-opacity="1" fill-rule="nonzero"/></g><g fill="#ffffff" fill-opacity="1"><g transform="translate(124.743804, 247.34062)"><g><path d="M 15.878906 -13.277344 C 15.671875 -14.152344 15.316406 -14.882812 14.882812 -15.464844 C 14.421875 -16.027344 13.820312 -16.460938 13.113281 -16.734375 C 12.402344 -17.003906 11.570312 -17.148438 10.59375 -17.148438 L 3.328125 -17.148438 L 3.328125 -17.128906 C 2.726562 -17.085938 2.207031 -16.753906 1.894531 -16.253906 C 1.8125 -16.089844 1.726562 -15.902344 1.6875 -15.734375 L 1.664062 -1.519531 C 1.707031 -1.289062 1.789062 -1.0625 1.894531 -0.875 C 2.226562 -0.3125 2.832031 0.0195312 3.476562 0.0195312 L 10.59375 0.0195312 C 11.570312 0.0195312 12.425781 -0.125 13.113281 -0.394531 C 13.820312 -0.664062 14.421875 -1.101562 14.882812 -1.6875 C 15.316406 -2.246094 15.671875 -2.976562 15.878906 -3.851562 C 16.089844 -4.722656 16.191406 -5.765625 16.191406 -6.929688 L 16.191406 -10.199219 C 16.191406 -11.363281 16.089844 -12.402344 15.878906 -13.277344 Z M 4.722656 -3.183594 L 4.722656 -13.945312 C 4.722656 -14.027344 4.746094 -14.070312 4.765625 -14.070312 L 10.53125 -14.070312 C 11.011719 -14.070312 11.425781 -14.007812 11.757812 -13.882812 C 12.09375 -13.757812 12.339844 -13.589844 12.527344 -13.320312 C 12.738281 -13.050781 12.882812 -12.695312 12.964844 -12.257812 C 13.050781 -11.78125 13.113281 -11.195312 13.113281 -10.511719 L 13.113281 -6.617188 C 13.113281 -5.929688 13.050781 -5.347656 12.964844 -4.890625 C 12.882812 -4.433594 12.738281 -4.078125 12.527344 -3.808594 C 12.339844 -3.558594 12.09375 -3.371094 11.757812 -3.246094 C 11.425781 -3.121094 11.011719 -3.082031 10.53125 -3.082031 L 4.746094 -3.082031 C 4.746094 -3.082031 4.722656 -3.101562 4.722656 -3.183594 Z M 4.722656 -3.183594 "/></g></g></g><g fill="#ffffff" fill-opacity="1"><g transform="translate(143.638149, 247.34062)"><g><path d="M 18.253906 -17.378906 L 15.964844 -17.378906 C 15.691406 -17.378906 15.484375 -17.234375 15.359375 -16.941406 L 10.261719 -4.058594 C 10.261719 -4.015625 10.238281 -4.015625 10.238281 -4.015625 L 10.15625 -3.996094 C 10.15625 -3.996094 10.15625 -4.015625 10.136719 -4.058594 L 4.953125 -16.941406 C 4.871094 -17.234375 4.660156 -17.378906 4.371094 -17.378906 L 2.121094 -17.378906 C 1.8125 -17.378906 1.707031 -17.171875 1.6875 -17.085938 C 1.644531 -16.941406 1.664062 -16.773438 1.75 -16.566406 L 7.574219 -2.164062 C 7.636719 -2.039062 7.679688 -1.9375 7.722656 -1.851562 C 8.035156 -0.75 9.054688 0.0195312 10.199219 0.0195312 C 10.71875 0.0195312 11.21875 -0.144531 11.632812 -0.4375 C 11.757812 -0.5 11.863281 -0.5625 11.945312 -0.644531 C 12.257812 -0.914062 12.550781 -1.414062 12.863281 -2.164062 L 18.648438 -16.566406 C 18.730469 -16.773438 18.753906 -16.941406 18.710938 -17.085938 C 18.667969 -17.191406 18.566406 -17.378906 18.253906 -17.378906 Z M 18.253906 -17.378906 "/></g></g></g><g fill="#ffffff" fill-opacity="1"><g transform="translate(165.071156, 247.34062)"><g/></g></g><g fill="#ffffff" fill-opacity="1"><g transform="translate(176.807289, 247.34062)"><g><path d="M 14.382812 -17.148438 L 6.804688 -17.148438 C 5.890625 -17.148438 5.097656 -17.023438 4.453125 -16.796875 C 3.789062 -16.546875 3.246094 -16.152344 2.851562 -15.628906 C 2.433594 -15.109375 2.121094 -14.421875 1.9375 -13.589844 C 1.75 -12.777344 1.664062 -11.78125 1.664062 -10.636719 L 1.664062 -6.515625 C 1.664062 -5.347656 1.75 -4.351562 1.9375 -3.515625 C 2.121094 -2.707031 2.433594 -2.019531 2.851562 -1.476562 C 3.265625 -0.957031 3.808594 -0.5625 4.453125 -0.332031 C 5.097656 -0.105469 5.890625 0.0195312 6.804688 0.0195312 L 14.382812 0.0195312 C 14.546875 0.0195312 14.964844 -0.0625 14.964844 -0.707031 L 14.964844 -2.351562 C 14.964844 -2.996094 14.546875 -3.082031 14.382812 -3.082031 L 6.910156 -3.082031 C 6.472656 -3.082031 6.097656 -3.121094 5.828125 -3.226562 C 5.558594 -3.308594 5.371094 -3.453125 5.203125 -3.683594 C 5.035156 -3.890625 4.933594 -4.203125 4.847656 -4.597656 C 4.785156 -5.015625 4.746094 -5.535156 4.746094 -6.160156 L 4.746094 -11.011719 C 4.746094 -11.632812 4.785156 -12.15625 4.847656 -12.550781 C 4.933594 -12.945312 5.035156 -13.238281 5.203125 -13.464844 C 5.371094 -13.695312 5.558594 -13.839844 5.828125 -13.921875 C 6.097656 -14.027344 6.472656 -14.070312 6.910156 -14.070312 L 14.382812 -14.070312 C 14.546875 -14.070312 14.964844 -14.152344 14.964844 -14.820312 L 14.964844 -16.421875 C 14.964844 -17.066406 14.546875 -17.148438 14.382812 -17.148438 Z M 14.382812 -17.148438 "/></g></g></g><g fill="#ffffff" fill-opacity="1"><g transform="translate(194.473913, 247.34062)"><g><path d="M 15.839844 -15.628906 C 15.421875 -16.152344 14.882812 -16.546875 14.214844 -16.796875 C 13.570312 -17.023438 12.777344 -17.148438 11.863281 -17.148438 L 6.785156 -17.148438 C 5.867188 -17.148438 5.097656 -17.023438 4.453125 -16.796875 C 3.789062 -16.546875 3.246094 -16.152344 2.832031 -15.628906 C 2.433594 -15.109375 2.121094 -14.421875 1.9375 -13.589844 C 1.75 -12.777344 1.664062 -11.800781 1.664062 -10.636719 L 1.664062 -6.515625 C 1.664062 -5.347656 1.75 -4.351562 1.9375 -3.539062 C 2.121094 -2.707031 2.433594 -2.019531 2.832031 -1.5 C 3.246094 -0.957031 3.789062 -0.5625 4.453125 -0.332031 C 5.078125 -0.105469 5.867188 0.0195312 6.785156 0.0195312 L 11.863281 0.0195312 C 12.777344 0.0195312 13.570312 -0.105469 14.214844 -0.332031 C 14.882812 -0.5625 15.421875 -0.957031 15.839844 -1.476562 C 16.253906 -2.019531 16.546875 -2.707031 16.734375 -3.539062 C 16.898438 -4.351562 17.003906 -5.347656 17.003906 -6.515625 L 17.003906 -10.636719 C 17.003906 -11.78125 16.898438 -12.777344 16.734375 -13.589844 C 16.546875 -14.421875 16.253906 -15.109375 15.839844 -15.628906 Z M 13.902344 -10.988281 L 13.902344 -6.140625 C 13.902344 -5.535156 13.882812 -5.015625 13.796875 -4.597656 C 13.734375 -4.226562 13.613281 -3.890625 13.445312 -3.683594 C 13.300781 -3.453125 13.089844 -3.308594 12.820312 -3.226562 C 12.550781 -3.121094 12.195312 -3.082031 11.757812 -3.082031 L 6.890625 -3.082031 C 6.453125 -3.082031 6.097656 -3.121094 5.828125 -3.226562 C 5.558594 -3.308594 5.347656 -3.453125 5.203125 -3.683594 C 5.035156 -3.890625 4.933594 -4.226562 4.847656 -4.597656 C 4.785156 -5.015625 4.746094 -5.535156 4.746094 -6.140625 L 4.746094 -10.988281 C 4.746094 -11.59375 4.785156 -12.113281 4.847656 -12.527344 C 4.933594 -12.925781 5.035156 -13.238281 5.203125 -13.464844 C 5.347656 -13.671875 5.558594 -13.820312 5.828125 -13.921875 C 6.097656 -14.007812 6.453125 -14.070312 6.890625 -14.070312 L 11.757812 -14.070312 C 12.195312 -14.070312 12.550781 -14.007812 12.820312 -13.921875 C 13.089844 -13.820312 13.300781 -13.671875 13.445312 -13.464844 C 13.613281 -13.238281 13.734375 -12.925781 13.796875 -12.527344 C 13.882812 -12.113281 13.902344 -11.59375 13.902344 -10.988281 Z M 13.902344 -10.988281 "/></g></g></g><g fill="#ffffff" fill-opacity="1"><g transform="translate(214.179795, 247.34062)"><g><path d="M 15.878906 -13.277344 C 15.671875 -14.152344 15.316406 -14.882812 14.882812 -15.464844 C 14.421875 -16.027344 13.820312 -16.460938 13.113281 -16.734375 C 12.402344 -17.003906 11.570312 -17.148438 10.59375 -17.148438 L 3.328125 -17.148438 L 3.328125 -17.128906 C 2.726562 -17.085938 2.207031 -16.753906 1.894531 -16.253906 C 1.8125 -16.089844 1.726562 -15.902344 1.6875 -15.734375 L 1.664062 -1.519531 C 1.707031 -1.289062 1.789062 -1.0625 1.894531 -0.875 C 2.226562 -0.3125 2.832031 0.0195312 3.476562 0.0195312 L 10.59375 0.0195312 C 11.570312 0.0195312 12.425781 -0.125 13.113281 -0.394531 C 13.820312 -0.664062 14.421875 -1.101562 14.882812 -1.6875 C 15.316406 -2.246094 15.671875 -2.976562 15.878906 -3.851562 C 16.089844 -4.722656 16.191406 -5.765625 16.191406 -6.929688 L 16.191406 -10.199219 C 16.191406 -11.363281 16.089844 -12.402344 15.878906 -13.277344 Z M 4.722656 -3.183594 L 4.722656 -13.945312 C 4.722656 -14.027344 4.746094 -14.070312 4.765625 -14.070312 L 10.53125 -14.070312 C 11.011719 -14.070312 11.425781 -14.007812 11.757812 -13.882812 C 12.09375 -13.757812 12.339844 -13.589844 12.527344 -13.320312 C 12.738281 -13.050781 12.882812 -12.695312 12.964844 -12.257812 C 13.050781 -11.78125 13.113281 -11.195312 13.113281 -10.511719 L 13.113281 -6.617188 C 13.113281 -5.929688 13.050781 -5.347656 12.964844 -4.890625 C 12.882812 -4.433594 12.738281 -4.078125 12.527344 -3.808594 C 12.339844 -3.558594 12.09375 -3.371094 11.757812 -3.246094 C 11.425781 -3.121094 11.011719 -3.082031 10.53125 -3.082031 L 4.746094 -3.082031 C 4.746094 -3.082031 4.722656 -3.101562 4.722656 -3.183594 Z M 4.722656 -3.183594 "/></g></g></g><g fill="#ffffff" fill-opacity="1"><g transform="translate(233.07414, 247.34062)"><g><path d="M 14.171875 -3.726562 L 6.847656 -3.726562 C 6.410156 -3.726562 6.054688 -3.789062 5.765625 -3.871094 C 5.496094 -3.976562 5.308594 -4.121094 5.140625 -4.328125 C 4.972656 -4.558594 4.847656 -4.871094 4.785156 -5.265625 C 4.765625 -5.371094 4.765625 -5.515625 4.746094 -5.621094 C 4.746094 -5.621094 4.765625 -7.117188 4.785156 -7.117188 L 14.089844 -7.117188 C 14.257812 -7.117188 14.671875 -7.199219 14.671875 -7.847656 L 14.671875 -9.492188 C 14.671875 -10.136719 14.257812 -10.199219 14.089844 -10.199219 L 3.351562 -10.175781 C 2.746094 -10.136719 2.226562 -9.824219 1.9375 -9.304688 C 1.832031 -9.136719 1.75 -8.96875 1.707031 -8.78125 L 1.664062 -6.160156 L 1.664062 -6.054688 C 1.6875 -5.078125 1.789062 -4.246094 1.9375 -3.558594 C 2.121094 -2.726562 2.433594 -2.039062 2.832031 -1.519531 C 3.246094 -0.976562 3.789062 -0.605469 4.453125 -0.375 C 5.097656 -0.125 5.867188 -0.0195312 6.785156 -0.0195312 L 14.171875 -0.0195312 C 14.359375 -0.0195312 14.777344 -0.0820312 14.777344 -0.726562 L 14.777344 -3.019531 C 14.777344 -3.664062 14.359375 -3.726562 14.171875 -3.726562 Z M 14.195312 -17.191406 L 2.226562 -17.191406 C 2.058594 -17.191406 1.664062 -17.109375 1.664062 -16.441406 L 1.664062 -14.820312 C 1.664062 -14.171875 2.058594 -14.109375 2.226562 -14.109375 L 14.195312 -14.089844 C 14.359375 -14.089844 14.777344 -14.171875 14.777344 -14.820312 L 14.777344 -16.460938 C 14.777344 -17.109375 14.359375 -17.191406 14.195312 -17.191406 Z M 14.195312 -17.191406 "/></g></g></g><g fill="#ffffff" fill-opacity="1"><g transform="translate(128.431019, 262.814155)"><g><path d="M 2.015625 -5.40625 L 3.40625 -1.734375 L 3.421875 -1.734375 L 4.8125 -5.40625 L 6.421875 -5.40625 L 6.421875 -4.75 L 6.15625 -4.734375 C 5.988281 -4.710938 5.910156 -4.613281 5.921875 -4.4375 L 6.125 -0.71875 L 6.625 -0.6875 L 6.625 0 L 4.671875 0 L 4.671875 -0.65625 L 4.953125 -0.6875 C 5.097656 -0.695312 5.171875 -0.765625 5.171875 -0.890625 L 5.015625 -3.765625 L 5 -3.765625 L 3.75 -0.515625 L 2.96875 -0.515625 L 1.734375 -3.734375 L 1.71875 -3.734375 L 1.5625 -0.71875 L 2.078125 -0.6875 L 2.078125 0 L 0.15625 0 L 0.15625 -0.65625 L 0.453125 -0.6875 C 0.578125 -0.695312 0.644531 -0.769531 0.65625 -0.90625 L 0.875 -4.6875 L 0.375 -4.71875 L 0.375 -5.40625 Z M 2.015625 -5.40625 "/></g></g></g><g fill="#ffffff" fill-opacity="1"><g transform="translate(136.800754, 262.814155)"><g><path d="M 3.921875 -3.9375 L 3.921875 -0.90625 C 3.921875 -0.8125 3.9375 -0.75 3.96875 -0.71875 C 4 -0.6875 4.050781 -0.671875 4.125 -0.671875 L 4.390625 -0.65625 L 4.390625 0 L 3.09375 0 L 3.09375 -0.46875 L 3.0625 -0.484375 C 2.789062 -0.0859375 2.421875 0.109375 1.953125 0.109375 C 1.398438 0.109375 0.988281 -0.0664062 0.71875 -0.421875 C 0.457031 -0.773438 0.328125 -1.257812 0.328125 -1.875 C 0.328125 -2.613281 0.503906 -3.1875 0.859375 -3.59375 C 1.222656 -4.007812 1.757812 -4.21875 2.46875 -4.21875 C 2.9375 -4.21875 3.421875 -4.125 3.921875 -3.9375 Z M 2.984375 -1.296875 L 2.984375 -3.40625 C 2.828125 -3.476562 2.617188 -3.515625 2.359375 -3.515625 C 1.992188 -3.515625 1.726562 -3.363281 1.5625 -3.0625 C 1.394531 -2.769531 1.3125 -2.382812 1.3125 -1.90625 C 1.3125 -1.03125 1.597656 -0.59375 2.171875 -0.59375 C 2.410156 -0.59375 2.601562 -0.660156 2.75 -0.796875 C 2.90625 -0.941406 2.984375 -1.109375 2.984375 -1.296875 Z M 2.984375 -1.296875 "/></g></g></g><g fill="#ffffff" fill-opacity="1"><g transform="translate(142.996636, 262.814155)"><g><path d="M 0.765625 -0.90625 L 0.765625 -4.875 C 0.765625 -4.957031 0.75 -5.015625 0.71875 -5.046875 C 0.695312 -5.085938 0.644531 -5.109375 0.5625 -5.109375 L 0.28125 -5.125 L 0.28125 -5.796875 L 1.734375 -5.796875 L 1.734375 -2.28125 C 2.035156 -2.300781 2.296875 -2.390625 2.515625 -2.546875 C 2.734375 -2.710938 2.882812 -2.921875 2.96875 -3.171875 C 2.988281 -3.222656 3 -3.269531 3 -3.3125 C 3 -3.394531 2.945312 -3.4375 2.84375 -3.4375 L 2.53125 -3.453125 L 2.53125 -4.09375 L 4.21875 -4.09375 L 4.21875 -3.4375 L 3.828125 -3.421875 C 3.753906 -2.867188 3.515625 -2.429688 3.109375 -2.109375 L 3.90625 -0.671875 L 4.40625 -0.65625 L 4.40625 0 L 3.21875 0 L 2.28125 -1.6875 C 2.101562 -1.644531 1.921875 -1.609375 1.734375 -1.578125 L 1.734375 -0.671875 L 2.203125 -0.65625 L 2.203125 0 L 0.265625 0 L 0.265625 -0.625 L 0.53125 -0.640625 C 0.613281 -0.648438 0.671875 -0.671875 0.703125 -0.703125 C 0.742188 -0.742188 0.765625 -0.8125 0.765625 -0.90625 Z M 0.765625 -0.90625 "/></g></g></g><g fill="#ffffff" fill-opacity="1"><g transform="translate(149.102958, 262.814155)"><g><path d="M 2.3125 -4.21875 C 2.71875 -4.21875 3.039062 -4.117188 3.28125 -3.921875 C 3.519531 -3.722656 3.640625 -3.441406 3.640625 -3.078125 C 3.640625 -2.847656 3.585938 -2.640625 3.484375 -2.453125 C 3.378906 -2.273438 3.25 -2.132812 3.09375 -2.03125 C 2.945312 -1.925781 2.765625 -1.84375 2.546875 -1.78125 C 2.179688 -1.664062 1.769531 -1.609375 1.3125 -1.609375 C 1.332031 -1.328125 1.421875 -1.097656 1.578125 -0.921875 C 1.742188 -0.742188 1.992188 -0.65625 2.328125 -0.65625 C 2.671875 -0.65625 3.007812 -0.773438 3.34375 -1.015625 L 3.65625 -0.34375 C 3.550781 -0.25 3.367188 -0.148438 3.109375 -0.046875 C 2.847656 0.0546875 2.550781 0.109375 2.21875 0.109375 C 1.5625 0.109375 1.078125 -0.0703125 0.765625 -0.4375 C 0.453125 -0.8125 0.296875 -1.316406 0.296875 -1.953125 C 0.296875 -2.597656 0.472656 -3.132812 0.828125 -3.5625 C 1.179688 -4 1.675781 -4.21875 2.3125 -4.21875 Z M 1.9375 -2.34375 C 2.132812 -2.382812 2.316406 -2.46875 2.484375 -2.59375 C 2.660156 -2.71875 2.75 -2.863281 2.75 -3.03125 C 2.75 -3.363281 2.582031 -3.53125 2.25 -3.53125 C 1.945312 -3.53125 1.710938 -3.40625 1.546875 -3.15625 C 1.390625 -2.914062 1.300781 -2.628906 1.28125 -2.296875 C 1.519531 -2.296875 1.738281 -2.3125 1.9375 -2.34375 Z M 1.9375 -2.34375 "/></g></g></g><g fill="#ffffff" fill-opacity="1"><g transform="translate(154.62307, 262.814155)"><g/></g></g><g fill="#ffffff" fill-opacity="1"><g transform="translate(157.830927, 262.814155)"><g><path d="M 0.546875 -0.90625 L 1.859375 -4.703125 L 1.34375 -4.75 L 1.34375 -5.40625 L 3.21875 -5.40625 L 4.875 -0.71875 L 4.890625 -0.71875 L 5.34375 -0.6875 L 5.34375 0 L 3.25 0 L 3.25 -0.65625 L 3.5625 -0.6875 C 3.65625 -0.695312 3.71875 -0.71875 3.75 -0.75 C 3.78125 -0.78125 3.78125 -0.835938 3.75 -0.921875 L 3.578125 -1.4375 L 1.671875 -1.4375 L 1.4375 -0.71875 L 1.921875 -0.6875 L 1.921875 0 L 0.046875 0 L 0.046875 -0.65625 L 0.3125 -0.6875 C 0.425781 -0.695312 0.503906 -0.769531 0.546875 -0.90625 Z M 2.625 -4.5 L 1.875 -2.1875 L 3.390625 -2.1875 L 2.65625 -4.5 Z M 2.625 -4.5 "/></g></g></g><g fill="#ffffff" fill-opacity="1"><g transform="translate(164.800279, 262.814155)"><g/></g></g><g fill="#ffffff" fill-opacity="1"><g transform="translate(168.008134, 262.814155)"><g><path d="M 0.265625 0 L 0.265625 -0.65625 L 0.546875 -0.6875 C 0.691406 -0.695312 0.765625 -0.769531 0.765625 -0.90625 L 0.765625 -4.703125 L 0.296875 -4.71875 L 0.296875 -5.40625 L 1.765625 -5.40625 L 4.0625 -1.671875 L 4.09375 -1.671875 L 4.09375 -4.703125 L 3.546875 -4.71875 L 3.546875 -5.40625 L 5.53125 -5.40625 L 5.53125 -4.75 L 5.25 -4.734375 C 5.113281 -4.722656 5.046875 -4.640625 5.046875 -4.484375 L 5.046875 0 L 4.09375 0 L 1.734375 -3.796875 L 1.71875 -3.796875 L 1.71875 -0.71875 L 2.25 -0.6875 L 2.25 0 Z M 0.265625 0 "/></g></g></g><g fill="#ffffff" fill-opacity="1"><g transform="translate(175.327578, 262.814155)"><g><path d="M 2.3125 -4.21875 C 2.71875 -4.21875 3.039062 -4.117188 3.28125 -3.921875 C 3.519531 -3.722656 3.640625 -3.441406 3.640625 -3.078125 C 3.640625 -2.847656 3.585938 -2.640625 3.484375 -2.453125 C 3.378906 -2.273438 3.25 -2.132812 3.09375 -2.03125 C 2.945312 -1.925781 2.765625 -1.84375 2.546875 -1.78125 C 2.179688 -1.664062 1.769531 -1.609375 1.3125 -1.609375 C 1.332031 -1.328125 1.421875 -1.097656 1.578125 -0.921875 C 1.742188 -0.742188 1.992188 -0.65625 2.328125 -0.65625 C 2.671875 -0.65625 3.007812 -0.773438 3.34375 -1.015625 L 3.65625 -0.34375 C 3.550781 -0.25 3.367188 -0.148438 3.109375 -0.046875 C 2.847656 0.0546875 2.550781 0.109375 2.21875 0.109375 C 1.5625 0.109375 1.078125 -0.0703125 0.765625 -0.4375 C 0.453125 -0.8125 0.296875 -1.316406 0.296875 -1.953125 C 0.296875 -2.597656 0.472656 -3.132812 0.828125 -3.5625 C 1.179688 -4 1.675781 -4.21875 2.3125 -4.21875 Z M 1.9375 -2.34375 C 2.132812 -2.382812 2.316406 -2.46875 2.484375 -2.59375 C 2.660156 -2.71875 2.75 -2.863281 2.75 -3.03125 C 2.75 -3.363281 2.582031 -3.53125 2.25 -3.53125 C 1.945312 -3.53125 1.710938 -3.40625 1.546875 -3.15625 C 1.390625 -2.914062 1.300781 -2.628906 1.28125 -2.296875 C 1.519531 -2.296875 1.738281 -2.3125 1.9375 -2.34375 Z M 1.9375 -2.34375 "/></g></g></g><g fill="#ffffff" fill-opacity="1"><g transform="translate(180.847693, 262.814155)"><g><path d="M 2.96875 -3.9375 L 3.75 -3.9375 L 4.59375 -0.90625 L 4.609375 -0.90625 L 5.171875 -3.421875 L 4.75 -3.4375 L 4.75 -4.09375 L 6.390625 -4.09375 L 6.390625 -3.46875 L 6.125 -3.453125 C 6.007812 -3.441406 5.9375 -3.375 5.90625 -3.25 L 5.125 0 L 3.953125 0 L 3.28125 -2.421875 L 3.265625 -2.421875 L 2.578125 0 L 1.375 0 L 0.546875 -3.25 C 0.523438 -3.320312 0.5 -3.367188 0.46875 -3.390625 C 0.4375 -3.421875 0.382812 -3.441406 0.3125 -3.453125 L 0.078125 -3.46875 L 0.078125 -4.09375 L 1.953125 -4.09375 L 1.953125 -3.4375 L 1.484375 -3.421875 L 2.046875 -0.921875 L 2.0625 -0.921875 Z M 2.96875 -3.9375 "/></g></g></g><g fill="#ffffff" fill-opacity="1"><g transform="translate(188.899896, 262.814155)"><g/></g></g><g fill="#ffffff" fill-opacity="1"><g transform="translate(192.107754, 262.814155)"><g><path d="M 3.890625 -0.015625 C 3.835938 0.585938 3.660156 1.03125 3.359375 1.3125 C 3.066406 1.59375 2.601562 1.734375 1.96875 1.734375 C 1.332031 1.734375 0.835938 1.644531 0.484375 1.46875 L 0.484375 0.34375 L 1.25 0.28125 L 1.25 0.671875 C 1.25 0.816406 1.316406 0.914062 1.453125 0.96875 C 1.585938 1.019531 1.773438 1.046875 2.015625 1.046875 C 2.367188 1.046875 2.613281 0.941406 2.75 0.734375 C 2.894531 0.523438 2.96875 0.226562 2.96875 -0.15625 L 2.96875 -0.609375 C 2.707031 -0.296875 2.34375 -0.140625 1.875 -0.140625 C 1.59375 -0.140625 1.34375 -0.191406 1.125 -0.296875 C 0.914062 -0.410156 0.753906 -0.5625 0.640625 -0.75 C 0.398438 -1.113281 0.28125 -1.546875 0.28125 -2.046875 C 0.28125 -2.765625 0.472656 -3.304688 0.859375 -3.671875 C 1.242188 -4.035156 1.757812 -4.21875 2.40625 -4.21875 C 2.9375 -4.21875 3.4375 -4.117188 3.90625 -3.921875 L 3.90625 -0.890625 C 3.90625 -0.429688 3.898438 -0.140625 3.890625 -0.015625 Z M 2.96875 -1.65625 L 2.96875 -3.40625 C 2.769531 -3.476562 2.550781 -3.515625 2.3125 -3.515625 C 1.976562 -3.515625 1.722656 -3.390625 1.546875 -3.140625 C 1.367188 -2.898438 1.28125 -2.570312 1.28125 -2.15625 C 1.28125 -1.289062 1.566406 -0.859375 2.140625 -0.859375 C 2.367188 -0.859375 2.5625 -0.929688 2.71875 -1.078125 C 2.882812 -1.222656 2.96875 -1.414062 2.96875 -1.65625 Z M 2.96875 -1.65625 "/></g></g></g><g fill="#ffffff" fill-opacity="1"><g transform="translate(198.116377, 262.814155)"><g><path d="M 2.3125 -4.21875 C 2.71875 -4.21875 3.039062 -4.117188 3.28125 -3.921875 C 3.519531 -3.722656 3.640625 -3.441406 3.640625 -3.078125 C 3.640625 -2.847656 3.585938 -2.640625 3.484375 -2.453125 C 3.378906 -2.273438 3.25 -2.132812 3.09375 -2.03125 C 2.945312 -1.925781 2.765625 -1.84375 2.546875 -1.78125 C 2.179688 -1.664062 1.769531 -1.609375 1.3125 -1.609375 C 1.332031 -1.328125 1.421875 -1.097656 1.578125 -0.921875 C 1.742188 -0.742188 1.992188 -0.65625 2.328125 -0.65625 C 2.671875 -0.65625 3.007812 -0.773438 3.34375 -1.015625 L 3.65625 -0.34375 C 3.550781 -0.25 3.367188 -0.148438 3.109375 -0.046875 C 2.847656 0.0546875 2.550781 0.109375 2.21875 0.109375 C 1.5625 0.109375 1.078125 -0.0703125 0.765625 -0.4375 C 0.453125 -0.8125 0.296875 -1.316406 0.296875 -1.953125 C 0.296875 -2.597656 0.472656 -3.132812 0.828125 -3.5625 C 1.179688 -4 1.675781 -4.21875 2.3125 -4.21875 Z M 1.9375 -2.34375 C 2.132812 -2.382812 2.316406 -2.46875 2.484375 -2.59375 C 2.660156 -2.71875 2.75 -2.863281 2.75 -3.03125 C 2.75 -3.363281 2.582031 -3.53125 2.25 -3.53125 C 1.945312 -3.53125 1.710938 -3.40625 1.546875 -3.15625 C 1.390625 -2.914062 1.300781 -2.628906 1.28125 -2.296875 C 1.519531 -2.296875 1.738281 -2.3125 1.9375 -2.34375 Z M 1.9375 -2.34375 "/></g></g></g><g fill="#ffffff" fill-opacity="1"><g transform="translate(203.636492, 262.814155)"><g><path d="M 0.21875 -3.4375 L 0.21875 -4.09375 L 1.59375 -4.09375 L 1.59375 -3.5625 C 1.738281 -3.757812 1.925781 -3.914062 2.15625 -4.03125 C 2.382812 -4.15625 2.640625 -4.21875 2.921875 -4.21875 C 3.328125 -4.21875 3.640625 -4.097656 3.859375 -3.859375 C 4.085938 -3.628906 4.203125 -3.273438 4.203125 -2.796875 L 4.203125 -0.671875 L 4.671875 -0.65625 L 4.671875 0 L 2.734375 0 L 2.734375 -0.625 L 3 -0.640625 C 3.082031 -0.648438 3.140625 -0.671875 3.171875 -0.703125 C 3.210938 -0.742188 3.234375 -0.8125 3.234375 -0.90625 L 3.234375 -2.59375 C 3.234375 -2.882812 3.1875 -3.101562 3.09375 -3.25 C 3.007812 -3.394531 2.835938 -3.46875 2.578125 -3.46875 C 2.316406 -3.46875 2.109375 -3.382812 1.953125 -3.21875 C 1.804688 -3.0625 1.734375 -2.867188 1.734375 -2.640625 L 1.734375 -0.671875 L 2.203125 -0.65625 L 2.203125 0 L 0.265625 0 L 0.265625 -0.625 L 0.53125 -0.640625 C 0.613281 -0.648438 0.671875 -0.671875 0.703125 -0.703125 C 0.742188 -0.742188 0.765625 -0.8125 0.765625 -0.90625 L 0.765625 -3.171875 C 0.765625 -3.328125 0.695312 -3.410156 0.5625 -3.421875 Z M 0.21875 -3.4375 "/></g></g></g><g fill="#ffffff" fill-opacity="1"><g transform="translate(210.101052, 262.814155)"><g><path d="M 2.3125 -4.21875 C 2.71875 -4.21875 3.039062 -4.117188 3.28125 -3.921875 C 3.519531 -3.722656 3.640625 -3.441406 3.640625 -3.078125 C 3.640625 -2.847656 3.585938 -2.640625 3.484375 -2.453125 C 3.378906 -2.273438 3.25 -2.132812 3.09375 -2.03125 C 2.945312 -1.925781 2.765625 -1.84375 2.546875 -1.78125 C 2.179688 -1.664062 1.769531 -1.609375 1.3125 -1.609375 C 1.332031 -1.328125 1.421875 -1.097656 1.578125 -0.921875 C 1.742188 -0.742188 1.992188 -0.65625 2.328125 -0.65625 C 2.671875 -0.65625 3.007812 -0.773438 3.34375 -1.015625 L 3.65625 -0.34375 C 3.550781 -0.25 3.367188 -0.148438 3.109375 -0.046875 C 2.847656 0.0546875 2.550781 0.109375 2.21875 0.109375 C 1.5625 0.109375 1.078125 -0.0703125 0.765625 -0.4375 C 0.453125 -0.8125 0.296875 -1.316406 0.296875 -1.953125 C 0.296875 -2.597656 0.472656 -3.132812 0.828125 -3.5625 C 1.179688 -4 1.675781 -4.21875 2.3125 -4.21875 Z M 1.9375 -2.34375 C 2.132812 -2.382812 2.316406 -2.46875 2.484375 -2.59375 C 2.660156 -2.71875 2.75 -2.863281 2.75 -3.03125 C 2.75 -3.363281 2.582031 -3.53125 2.25 -3.53125 C 1.945312 -3.53125 1.710938 -3.40625 1.546875 -3.15625 C 1.390625 -2.914062 1.300781 -2.628906 1.28125 -2.296875 C 1.519531 -2.296875 1.738281 -2.3125 1.9375 -2.34375 Z M 1.9375 -2.34375 "/></g></g></g><g fill="#ffffff" fill-opacity="1"><g transform="translate(215.621166, 262.814155)"><g><path d="M 0.765625 -0.90625 L 0.765625 -3.171875 C 0.765625 -3.253906 0.75 -3.3125 0.71875 -3.34375 C 0.695312 -3.382812 0.644531 -3.40625 0.5625 -3.40625 L 0.234375 -3.4375 L 0.234375 -4.09375 L 1.609375 -4.09375 L 1.609375 -3.484375 C 1.703125 -3.691406 1.851562 -3.863281 2.0625 -4 C 2.269531 -4.144531 2.503906 -4.21875 2.765625 -4.21875 C 3.035156 -4.21875 3.296875 -4.15625 3.546875 -4.03125 L 3.546875 -2.828125 L 2.78125 -2.765625 L 2.78125 -3.140625 C 2.78125 -3.253906 2.753906 -3.320312 2.703125 -3.34375 C 2.640625 -3.375 2.566406 -3.390625 2.484375 -3.390625 C 2.265625 -3.390625 2.082031 -3.3125 1.9375 -3.15625 C 1.800781 -3 1.734375 -2.800781 1.734375 -2.5625 L 1.734375 -0.671875 L 2.453125 -0.640625 L 2.453125 0 L 0.265625 0 L 0.265625 -0.625 L 0.53125 -0.640625 C 0.613281 -0.648438 0.671875 -0.671875 0.703125 -0.703125 C 0.742188 -0.742188 0.765625 -0.8125 0.765625 -0.90625 Z M 0.765625 -0.90625 "/></g></g></g><g fill="#ffffff" fill-opacity="1"><g transform="translate(220.962166, 262.814155)"><g><path d="M 3.921875 -3.9375 L 3.921875 -0.90625 C 3.921875 -0.8125 3.9375 -0.75 3.96875 -0.71875 C 4 -0.6875 4.050781 -0.671875 4.125 -0.671875 L 4.390625 -0.65625 L 4.390625 0 L 3.09375 0 L 3.09375 -0.46875 L 3.0625 -0.484375 C 2.789062 -0.0859375 2.421875 0.109375 1.953125 0.109375 C 1.398438 0.109375 0.988281 -0.0664062 0.71875 -0.421875 C 0.457031 -0.773438 0.328125 -1.257812 0.328125 -1.875 C 0.328125 -2.613281 0.503906 -3.1875 0.859375 -3.59375 C 1.222656 -4.007812 1.757812 -4.21875 2.46875 -4.21875 C 2.9375 -4.21875 3.421875 -4.125 3.921875 -3.9375 Z M 2.984375 -1.296875 L 2.984375 -3.40625 C 2.828125 -3.476562 2.617188 -3.515625 2.359375 -3.515625 C 1.992188 -3.515625 1.726562 -3.363281 1.5625 -3.0625 C 1.394531 -2.769531 1.3125 -2.382812 1.3125 -1.90625 C 1.3125 -1.03125 1.597656 -0.59375 2.171875 -0.59375 C 2.410156 -0.59375 2.601562 -0.660156 2.75 -0.796875 C 2.90625 -0.941406 2.984375 -1.109375 2.984375 -1.296875 Z M 2.984375 -1.296875 "/></g></g></g><g fill="#ffffff" fill-opacity="1"><g transform="translate(227.15805, 262.814155)"><g><path d="M 1.171875 -4.953125 L 1.703125 -4.953125 L 1.703125 -4.09375 L 2.78125 -4.09375 L 2.703125 -3.40625 L 1.703125 -3.40625 L 1.703125 -1.265625 C 1.703125 -1.023438 1.742188 -0.859375 1.828125 -0.765625 C 1.921875 -0.671875 2.054688 -0.625 2.234375 -0.625 C 2.410156 -0.625 2.59375 -0.679688 2.78125 -0.796875 L 3.03125 -0.171875 C 2.757812 0.015625 2.414062 0.109375 2 0.109375 C 1.75 0.109375 1.539062 0.078125 1.375 0.015625 C 1.207031 -0.046875 1.082031 -0.113281 1 -0.1875 C 0.914062 -0.257812 0.851562 -0.367188 0.8125 -0.515625 C 0.769531 -0.660156 0.742188 -0.773438 0.734375 -0.859375 C 0.734375 -0.953125 0.734375 -1.078125 0.734375 -1.234375 L 0.734375 -3.40625 L 0.15625 -3.40625 L 0.234375 -4 C 0.492188 -4.019531 0.6875 -4.109375 0.8125 -4.265625 C 0.945312 -4.429688 1.066406 -4.660156 1.171875 -4.953125 Z M 1.171875 -4.953125 "/></g></g></g><g fill="#ffffff" fill-opacity="1"><g transform="translate(231.807002, 262.814155)"><g><path d="M 1.734375 -4.09375 L 1.734375 -0.671875 L 2.203125 -0.65625 L 2.203125 0 L 0.265625 0 L 0.265625 -0.625 L 0.53125 -0.640625 C 0.6875 -0.660156 0.765625 -0.75 0.765625 -0.90625 L 0.765625 -3.171875 C 0.765625 -3.265625 0.75 -3.328125 0.71875 -3.359375 C 0.695312 -3.390625 0.644531 -3.40625 0.5625 -3.40625 L 0.28125 -3.421875 L 0.28125 -4.09375 Z M 0.71875 -4.796875 C 0.601562 -4.910156 0.546875 -5.050781 0.546875 -5.21875 C 0.546875 -5.394531 0.601562 -5.539062 0.71875 -5.65625 C 0.832031 -5.78125 0.976562 -5.84375 1.15625 -5.84375 C 1.34375 -5.84375 1.492188 -5.78125 1.609375 -5.65625 C 1.734375 -5.539062 1.796875 -5.394531 1.796875 -5.21875 C 1.796875 -5.050781 1.734375 -4.910156 1.609375 -4.796875 C 1.492188 -4.679688 1.34375 -4.625 1.15625 -4.625 C 0.976562 -4.625 0.832031 -4.679688 0.71875 -4.796875 Z M 0.71875 -4.796875 "/></g></g></g><g fill="#ffffff" fill-opacity="1"><g transform="translate(235.796469, 262.814155)"><g><path d="M 2.140625 -0.59375 C 2.734375 -0.59375 3.03125 -1.070312 3.03125 -2.03125 C 3.03125 -2.507812 2.960938 -2.875 2.828125 -3.125 C 2.691406 -3.375 2.46875 -3.5 2.15625 -3.5 C 1.84375 -3.5 1.613281 -3.378906 1.46875 -3.140625 C 1.320312 -2.898438 1.25 -2.578125 1.25 -2.171875 C 1.25 -1.398438 1.390625 -0.914062 1.671875 -0.71875 C 1.796875 -0.632812 1.953125 -0.59375 2.140625 -0.59375 Z M 0.265625 -2.046875 C 0.265625 -2.453125 0.320312 -2.800781 0.4375 -3.09375 C 0.5625 -3.394531 0.722656 -3.625 0.921875 -3.78125 C 1.304688 -4.070312 1.734375 -4.21875 2.203125 -4.21875 C 2.523438 -4.21875 2.800781 -4.164062 3.03125 -4.0625 C 3.257812 -3.957031 3.4375 -3.832031 3.5625 -3.6875 C 3.6875 -3.550781 3.789062 -3.347656 3.875 -3.078125 C 3.96875 -2.816406 4.015625 -2.507812 4.015625 -2.15625 C 4.015625 -1.40625 3.832031 -0.835938 3.46875 -0.453125 C 3.113281 -0.0664062 2.648438 0.125 2.078125 0.125 C 1.515625 0.125 1.070312 -0.0546875 0.75 -0.421875 C 0.425781 -0.796875 0.265625 -1.335938 0.265625 -2.046875 Z M 0.265625 -2.046875 "/></g></g></g><g fill="#ffffff" fill-opacity="1"><g transform="translate(241.674828, 262.814155)"><g><path d="M 0.21875 -3.4375 L 0.21875 -4.09375 L 1.59375 -4.09375 L 1.59375 -3.5625 C 1.738281 -3.757812 1.925781 -3.914062 2.15625 -4.03125 C 2.382812 -4.15625 2.640625 -4.21875 2.921875 -4.21875 C 3.328125 -4.21875 3.640625 -4.097656 3.859375 -3.859375 C 4.085938 -3.628906 4.203125 -3.273438 4.203125 -2.796875 L 4.203125 -0.671875 L 4.671875 -0.65625 L 4.671875 0 L 2.734375 0 L 2.734375 -0.625 L 3 -0.640625 C 3.082031 -0.648438 3.140625 -0.671875 3.171875 -0.703125 C 3.210938 -0.742188 3.234375 -0.8125 3.234375 -0.90625 L 3.234375 -2.59375 C 3.234375 -2.882812 3.1875 -3.101562 3.09375 -3.25 C 3.007812 -3.394531 2.835938 -3.46875 2.578125 -3.46875 C 2.316406 -3.46875 2.109375 -3.382812 1.953125 -3.21875 C 1.804688 -3.0625 1.734375 -2.867188 1.734375 -2.640625 L 1.734375 -0.671875 L 2.203125 -0.65625 L 2.203125 0 L 0.265625 0 L 0.265625 -0.625 L 0.53125 -0.640625 C 0.613281 -0.648438 0.671875 -0.671875 0.703125 -0.703125 C 0.742188 -0.742188 0.765625 -0.8125 0.765625 -0.90625 L 0.765625 -3.171875 C 0.765625 -3.328125 0.695312 -3.410156 0.5625 -3.421875 Z M 0.21875 -3.4375 "/></g></g></g></svg>